<mxfile host="app.diagrams.net" modified="2022-06-10T19:03:30.205Z" agent="5.0 (Macintosh; Intel Mac OS X 10_15_7) AppleWebKit/537.36 (KHTML, like Gecko) Chrome/102.0.5005.61 Safari/537.36" etag="FdOupBTT92SagK7PRo9v" version="19.0.3" type="github">
  <diagram id="BeKNwk-3ZsxTk8yUApD5" name="Page-1">
    <mxGraphModel dx="946" dy="614" grid="1" gridSize="10" guides="1" tooltips="1" connect="1" arrows="1" fold="1" page="1" pageScale="1" pageWidth="850" pageHeight="1100" math="0" shadow="0">
      <root>
        <mxCell id="0" />
        <mxCell id="1" parent="0" />
        <mxCell id="WCV-aWRTnSz0WXJtfc9E-1" value="House" style="rounded=0;whiteSpace=wrap;html=1;" vertex="1" parent="1">
          <mxGeometry x="170" y="210" width="120" height="60" as="geometry" />
        </mxCell>
        <mxCell id="WCV-aWRTnSz0WXJtfc9E-2" value="Room" style="rounded=0;whiteSpace=wrap;html=1;" vertex="1" parent="1">
          <mxGeometry x="550" y="210" width="120" height="60" as="geometry" />
        </mxCell>
        <mxCell id="WCV-aWRTnSz0WXJtfc9E-5" value="Kitchen" style="html=1;fontSize=16;strokeWidth=6;" vertex="1" parent="1">
          <mxGeometry x="400" y="360" width="110" height="50" as="geometry" />
        </mxCell>
        <mxCell id="WCV-aWRTnSz0WXJtfc9E-6" value="Bathroom" style="html=1;fontSize=16;strokeWidth=6;" vertex="1" parent="1">
          <mxGeometry x="555" y="360" width="110" height="50" as="geometry" />
        </mxCell>
        <mxCell id="WCV-aWRTnSz0WXJtfc9E-7" value="Bedroom" style="html=1;fontSize=16;strokeWidth=6;" vertex="1" parent="1">
          <mxGeometry x="700" y="360" width="110" height="50" as="geometry" />
        </mxCell>
        <mxCell id="WCV-aWRTnSz0WXJtfc9E-8" value="" style="endArrow=block;endSize=16;endFill=0;html=1;rounded=0;fontSize=16;exitX=0.391;exitY=-0.08;exitDx=0;exitDy=0;exitPerimeter=0;entryX=0.142;entryY=0.983;entryDx=0;entryDy=0;entryPerimeter=0;" edge="1" parent="1" source="WCV-aWRTnSz0WXJtfc9E-5" target="WCV-aWRTnSz0WXJtfc9E-2">
          <mxGeometry width="160" relative="1" as="geometry">
            <mxPoint x="420" y="280" as="sourcePoint" />
            <mxPoint x="580" y="280" as="targetPoint" />
          </mxGeometry>
        </mxCell>
        <mxCell id="WCV-aWRTnSz0WXJtfc9E-9" value="" style="endArrow=block;endSize=16;endFill=0;html=1;rounded=0;fontSize=16;exitX=0.445;exitY=0;exitDx=0;exitDy=0;exitPerimeter=0;entryX=0.2;entryY=1.05;entryDx=0;entryDy=0;entryPerimeter=0;" edge="1" parent="1" source="WCV-aWRTnSz0WXJtfc9E-7">
          <mxGeometry width="160" relative="1" as="geometry">
            <mxPoint x="534.01" y="353" as="sourcePoint" />
            <mxPoint x="665" y="270" as="targetPoint" />
          </mxGeometry>
        </mxCell>
        <mxCell id="WCV-aWRTnSz0WXJtfc9E-10" value="" style="endArrow=block;endSize=16;endFill=0;html=1;rounded=0;fontSize=16;exitX=0.5;exitY=0;exitDx=0;exitDy=0;entryX=0.2;entryY=1.05;entryDx=0;entryDy=0;entryPerimeter=0;" edge="1" parent="1" source="WCV-aWRTnSz0WXJtfc9E-6">
          <mxGeometry width="160" relative="1" as="geometry">
            <mxPoint x="480" y="353" as="sourcePoint" />
            <mxPoint x="610.99" y="270" as="targetPoint" />
          </mxGeometry>
        </mxCell>
        <mxCell id="WCV-aWRTnSz0WXJtfc9E-11" value="" style="endArrow=diamondThin;endFill=1;endSize=24;html=1;rounded=0;fontSize=16;entryX=0.75;entryY=1;entryDx=0;entryDy=0;exitX=0.5;exitY=1;exitDx=0;exitDy=0;" edge="1" parent="1" source="WCV-aWRTnSz0WXJtfc9E-5" target="WCV-aWRTnSz0WXJtfc9E-1">
          <mxGeometry width="160" relative="1" as="geometry">
            <mxPoint x="460" y="460" as="sourcePoint" />
            <mxPoint x="260" y="310" as="targetPoint" />
            <Array as="points">
              <mxPoint x="455" y="430" />
              <mxPoint x="260" y="430" />
            </Array>
          </mxGeometry>
        </mxCell>
        <mxCell id="WCV-aWRTnSz0WXJtfc9E-12" value="" style="endArrow=diamondThin;endFill=1;endSize=24;html=1;rounded=0;fontSize=16;entryX=0.5;entryY=1;entryDx=0;entryDy=0;exitX=0.5;exitY=1;exitDx=0;exitDy=0;" edge="1" parent="1" source="WCV-aWRTnSz0WXJtfc9E-6" target="WCV-aWRTnSz0WXJtfc9E-1">
          <mxGeometry width="160" relative="1" as="geometry">
            <mxPoint x="465" y="420" as="sourcePoint" />
            <mxPoint x="270" y="280" as="targetPoint" />
            <Array as="points">
              <mxPoint x="610" y="450" />
              <mxPoint x="350" y="450" />
              <mxPoint x="230" y="450" />
            </Array>
          </mxGeometry>
        </mxCell>
        <mxCell id="WCV-aWRTnSz0WXJtfc9E-13" value="" style="endArrow=diamondThin;endFill=1;endSize=24;html=1;rounded=0;fontSize=16;entryX=0.25;entryY=1;entryDx=0;entryDy=0;exitX=0.5;exitY=1;exitDx=0;exitDy=0;" edge="1" parent="1" source="WCV-aWRTnSz0WXJtfc9E-7" target="WCV-aWRTnSz0WXJtfc9E-1">
          <mxGeometry width="160" relative="1" as="geometry">
            <mxPoint x="620" y="420" as="sourcePoint" />
            <mxPoint x="240" y="280" as="targetPoint" />
            <Array as="points">
              <mxPoint x="755" y="470" />
              <mxPoint x="200" y="470" />
            </Array>
          </mxGeometry>
        </mxCell>
        <mxCell id="WCV-aWRTnSz0WXJtfc9E-14" value="1" style="text;html=1;align=center;verticalAlign=middle;resizable=0;points=[];autosize=1;strokeColor=none;fillColor=none;fontSize=12;" vertex="1" parent="1">
          <mxGeometry x="460" y="415" width="20" height="20" as="geometry" />
        </mxCell>
        <mxCell id="WCV-aWRTnSz0WXJtfc9E-16" value="*" style="text;html=1;align=center;verticalAlign=middle;resizable=0;points=[];autosize=1;strokeColor=none;fillColor=none;fontSize=17;" vertex="1" parent="1">
          <mxGeometry x="590" y="410" width="20" height="30" as="geometry" />
        </mxCell>
        <mxCell id="WCV-aWRTnSz0WXJtfc9E-17" value="*" style="text;html=1;align=center;verticalAlign=middle;resizable=0;points=[];autosize=1;strokeColor=none;fillColor=none;fontSize=17;" vertex="1" parent="1">
          <mxGeometry x="730" y="410" width="20" height="30" as="geometry" />
        </mxCell>
        <mxCell id="WCV-aWRTnSz0WXJtfc9E-18" value="Garage" style="html=1;fontSize=17;strokeWidth=6;" vertex="1" parent="1">
          <mxGeometry x="200" y="600" width="110" height="50" as="geometry" />
        </mxCell>
        <mxCell id="WCV-aWRTnSz0WXJtfc9E-19" value="Car" style="html=1;fontSize=17;strokeWidth=6;" vertex="1" parent="1">
          <mxGeometry x="480" y="600" width="110" height="50" as="geometry" />
        </mxCell>
        <mxCell id="WCV-aWRTnSz0WXJtfc9E-20" value="" style="endArrow=diamondThin;endFill=1;endSize=24;html=1;rounded=0;fontSize=17;exitX=0;exitY=0.5;exitDx=0;exitDy=0;" edge="1" parent="1" source="WCV-aWRTnSz0WXJtfc9E-18">
          <mxGeometry width="160" relative="1" as="geometry">
            <mxPoint x="100" y="640" as="sourcePoint" />
            <mxPoint x="170" y="240" as="targetPoint" />
            <Array as="points">
              <mxPoint x="100" y="625" />
              <mxPoint x="100" y="240" />
              <mxPoint x="150" y="240" />
            </Array>
          </mxGeometry>
        </mxCell>
        <mxCell id="WCV-aWRTnSz0WXJtfc9E-21" value="" style="endArrow=block;endSize=16;endFill=0;html=1;rounded=0;fontSize=16;exitX=0;exitY=0.5;exitDx=0;exitDy=0;entryX=1;entryY=0.5;entryDx=0;entryDy=0;" edge="1" parent="1" source="WCV-aWRTnSz0WXJtfc9E-19" target="WCV-aWRTnSz0WXJtfc9E-18">
          <mxGeometry width="160" relative="1" as="geometry">
            <mxPoint x="480" y="630" as="sourcePoint" />
            <mxPoint x="480.99" y="540" as="targetPoint" />
          </mxGeometry>
        </mxCell>
        <mxCell id="WCV-aWRTnSz0WXJtfc9E-22" value="1" style="text;html=1;align=center;verticalAlign=middle;resizable=0;points=[];autosize=1;strokeColor=none;fillColor=none;fontSize=17;" vertex="1" parent="1">
          <mxGeometry x="170" y="595" width="20" height="30" as="geometry" />
        </mxCell>
      </root>
    </mxGraphModel>
  </diagram>
</mxfile>
